<svg version="1.0" xmlns="http://www.w3.org/2000/svg"
     width="500" height="250"  viewBox="0 0 0 0 500 500"
 preserveAspectRatio="xMidYMid meet">

<g transform="translate(0.000000,228.000000) scale(0.100000,-0.100000)"
   fill="#0AAD0A"  stroke="none">
<path fill="#0AAD0A"  d="M1090 1921 c-25 -10 -101 -42 -170 -70 -69 -29 -210 -86 -315 -127
-220 -87 -315 -130 -315 -142 0 -5 11 -15 25 -22 22 -12 25 -20 25 -66 0 -46
-4 -55 -27 -73 -37 -26 -25 -46 46 -74 65 -26 73 -41 31 -56 -21 -7 -29 -15
-24 -23 24 -40 180 -267 197 -285 13 -14 32 -23 50 -23 29 0 27 -2 -33 -47
-34 -27 -99 -77 -144 -113 -45 -36 -108 -83 -140 -105 -41 -28 -59 -47 -63
-68 -5 -24 -21 -41 -82 -84 -15 -11 40 -34 154 -67 274 -78 359 -109 386 -137
30 -33 120 -62 165 -53 25 4 79 -13 260 -86 126 -51 251 -101 278 -112 l48
-19 142 114 c196 157 315 251 426 335 52 39 106 81 119 93 l25 20 -28 22 c-15
12 -39 44 -54 70 -26 47 -30 50 -177 114 -217 94 -280 115 -365 121 -64 4 -80
9 -108 33 -17 16 -58 36 -90 44 -31 9 -61 18 -67 19 -17 6 133 33 330 61 191
27 199 30 214 60 24 49 17 195 -9 195 -11 0 -137 87 -145 101 -4 5 2 12 12 15
42 13 97 39 109 52 28 28 8 164 -31 206 -12 13 -42 30 -66 36 -24 6 -118 36
-209 65 -281 92 -293 95 -314 95 -12 -1 -41 -9 -66 -19z m265 -76 c191 -60
230 -74 224 -79 -7 -6 -457 -205 -579 -256 -63 -26 -145 -62 -181 -79 l-65
-32 -140 61 c-76 34 -161 70 -187 82 -26 11 -46 25 -44 31 2 6 39 26 83 44 43
19 93 40 109 48 17 7 70 30 119 50 49 20 96 41 105 45 9 5 59 25 111 46 52 20
118 47 145 58 94 41 100 43 110 40 6 -1 91 -28 190 -59z m364 -129 c-2 -2 -58
-29 -124 -59 -591 -268 -707 -319 -712 -313 -9 9 -12 7 147 79 450 205 657
296 674 297 11 0 17 -2 15 -4z m41 -107 c0 -55 -3 -69 -15 -69 -12 0 -15 13
-15 59 0 33 3 66 6 75 13 33 24 2 24 -65z m-46 20 c3 -17 6 -47 6 -65 0 -29
-5 -36 -37 -49 -80 -34 -83 -33 -83 23 0 28 3 58 6 67 10 25 24 -2 24 -47 0
-58 16 -45 19 14 3 76 8 76 28 3 7 -26 8 -23 11 28 3 62 16 75 26 26z m-126
-98 c4 -41 1 -52 -12 -57 -25 -10 -27 -3 -20 65 8 73 24 69 32 -8z m-48 -14
l0 -63 -52 -22 c-28 -12 -54 -20 -56 -17 -9 8 10 115 19 110 5 -4 9 -16 10
-28 1 -12 5 -3 11 21 12 54 28 45 29 -16 l2 -47 12 60 c15 69 13 65 20 65 3 0
5 -28 5 -63z m-1117 -1 c76 -34 404 -174 420 -180 36 -12 51 -114 22 -152 -14
-17 -16 -17 -27 -3 -7 9 -38 25 -68 36 -30 12 -102 41 -160 66 -58 24 -140 59
-182 77 -70 29 -77 34 -67 51 13 25 18 89 7 95 -10 7 -1 24 14 24 5 0 24 -6
41 -14z m997 -55 c0 -53 -2 -60 -22 -66 -13 -4 -47 -18 -75 -31 -54 -24 -335
-146 -388 -168 l-30 -13 -2 59 c-1 32 2 58 7 58 10 0 20 -26 20 -53 0 -18 2
-19 10 -7 5 8 10 27 10 43 0 32 20 37 21 5 1 -18 3 -16 10 10 5 17 12 32 14
32 2 0 9 -15 14 -32 l9 -33 1 37 c2 60 28 56 33 -5 0 -12 4 -2 7 23 7 54 24
55 31 3 4 -29 7 -34 13 -20 4 10 7 34 7 53 0 45 16 43 28 -3 l10 -38 1 42 c1
57 18 63 29 11 l10 -43 1 47 c1 61 17 70 29 16 l10 -43 2 35 c1 19 5 44 10 55
7 19 8 18 13 -5 4 -14 8 -34 10 -45 2 -11 7 4 11 33 10 65 26 68 27 5 1 -27 3
-37 6 -23 12 78 15 90 24 85 5 -4 10 -23 11 -43 1 -37 1 -37 7 7 8 60 31 67
32 9 2 -32 3 -35 6 -13 11 93 33 104 33 16z m248 -46 c34 -21 59 -41 55 -45
-4 -3 -57 -14 -118 -24 -60 -9 -165 -26 -232 -37 -68 -12 -128 -19 -135 -17
-6 2 51 31 128 64 76 32 159 69 183 81 25 12 47 21 50 19 3 -2 34 -20 69 -41z
m-1176 -123 c9 -4 37 -34 62 -66 45 -58 46 -61 46 -134 0 -42 -4 -72 -10 -70
-5 2 -42 53 -82 113 -66 99 -73 113 -64 138 10 28 18 31 48 19z m1229 -72 c0
-34 2 -40 9 -25 5 11 9 37 9 58 1 38 14 49 25 21 3 -9 6 -35 6 -58 l0 -43 -47
-7 c-25 -3 -47 -5 -48 -4 -2 2 3 30 10 63 7 33 14 62 14 65 1 3 6 -2 11 -10 5
-8 10 -35 11 -60z m-61 1 c0 -33 -4 -62 -9 -65 -4 -3 -33 -8 -63 -12 l-55 -6
4 53 c6 72 14 91 23 59 5 -14 9 -41 10 -60 2 -33 3 -33 10 -10 4 14 8 40 9 58
1 17 6 32 11 32 10 0 15 -36 13 -90 -1 -24 0 -24 13 5 7 17 13 45 14 63 0 17
5 32 10 32 6 0 10 -26 10 -59z m-1027 12 c61 -24 66 -28 46 -35 -42 -16 -80
-5 -107 30 -13 17 -21 32 -16 32 5 0 39 -12 77 -27z m892 -4 c4 -17 4 -46 1
-65 -7 -35 -6 -35 -83 -39 -12 0 -25 -4 -29 -8 -18 -18 -23 -2 -18 56 9 83 21
92 30 21 5 -44 9 -54 15 -39 4 11 8 37 8 58 2 71 29 34 32 -43 1 -32 2 -33 9
-10 4 14 8 42 9 63 1 45 17 49 26 6z m-145 -58 l0 -58 -65 -9 -64 -10 6 60 c8
85 23 94 23 16 0 -74 15 -66 26 13 9 62 28 47 23 -17 -3 -25 -1 -46 3 -46 10
0 30 78 23 90 -8 13 4 32 16 25 5 -4 9 -32 9 -64z m-140 -9 c0 -57 -10 -74
-43 -77 -14 -2 -31 -6 -37 -10 -8 -5 -9 13 -4 62 4 37 8 70 10 72 9 10 16 -11
23 -61 l7 -53 12 40 c7 22 12 50 12 63 0 13 4 20 10 17 6 -3 10 -27 10 -53z
m-144 -24 l8 -53 4 58 c5 90 32 70 32 -24 l0 -49 -35 0 -35 0 0 66 c0 76 14
77 26 2z m-48 -21 c-2 -29 -8 -42 -18 -42 -12 0 -14 11 -11 50 1 28 5 54 8 59
11 17 24 -25 21 -67z m-48 1 c0 -21 -4 -38 -10 -38 -5 0 -10 24 -10 53 0 37 3
48 10 37 5 -8 10 -32 10 -52z m-40 13 c0 -31 -14 -49 -25 -32 -8 13 5 61 16
61 5 0 9 -13 9 -29z m-170 -30 c0 -22 -6 -44 -15 -51 -13 -11 -15 -6 -15 37 0
27 3 53 6 56 14 13 24 -5 24 -42z m30 14 c0 -19 -4 -35 -10 -35 -11 0 -14 53
-3 63 11 12 13 8 13 -28z m86 -2 c-11 -11 -19 6 -11 24 8 17 8 17 12 0 3 -10
2 -21 -1 -24z m-252 11 c3 -9 7 -32 7 -52 1 -38 3 -34 14 32 11 66 29 19 26
-66 -1 -18 -7 -28 -16 -28 -8 0 -15 5 -15 11 0 6 -7 3 -16 -5 -26 -27 -37 -19
-30 22 3 20 6 52 6 70 0 34 14 43 24 16z m96 -31 c0 -45 -13 -83 -24 -72 -8 8
6 119 15 119 5 0 9 -21 9 -47z m110 32 c0 -8 -4 -15 -10 -15 -5 0 -10 7 -10
15 0 8 5 15 10 15 6 0 10 -7 10 -15z m82 -70 c35 -7 130 -21 212 -29 123 -13
156 -20 197 -42 26 -15 50 -33 53 -40 3 -8 -14 -29 -41 -51 -26 -21 -65 -54
-87 -74 -23 -20 -71 -58 -107 -85 -36 -27 -101 -76 -144 -109 -42 -33 -110
-83 -149 -112 -70 -51 -71 -51 -91 -33 -31 28 -136 66 -295 105 -80 20 -158
39 -175 43 -29 7 -28 9 85 95 63 48 192 146 285 217 94 71 175 130 182 130 6
0 40 -7 75 -15z m686 -150 c31 -9 122 -45 202 -79 80 -35 153 -66 163 -69 9
-4 17 -10 17 -14 -1 -4 -47 -43 -103 -85 -56 -42 -163 -124 -237 -182 -74 -58
-172 -130 -217 -161 l-83 -56 -92 39 c-116 49 -227 86 -235 78 -4 -3 -1 -6 5
-6 19 0 235 -95 279 -123 39 -24 95 -109 81 -122 -5 -5 -66 17 -228 83 -41 17
-124 49 -185 71 -60 22 -114 47 -119 54 -7 12 -12 11 -28 -5 -22 -22 -52 -22
-97 0 -49 24 -60 46 -37 71 23 25 87 29 106 6 8 -9 18 -12 27 -7 13 8 62 4
155 -12 48 -8 -43 18 -121 35 l-65 14 150 116 c82 64 192 148 244 187 52 40
130 99 173 132 76 58 78 59 133 55 30 -2 80 -11 112 -20z m433 -220 c12 -25
21 -46 18 -48 -67 -57 -151 -126 -214 -174 -44 -34 -110 -86 -146 -115 -107
-87 -270 -213 -279 -216 -5 -2 -11 7 -15 19 -6 18 1 30 41 66 l49 44 -55 -40
c-54 -40 -75 -46 -49 -15 7 8 48 43 91 76 43 33 78 63 78 65 0 3 -6 1 -12 -4
-26 -20 -163 -120 -175 -127 -7 -4 -13 -3 -13 2 0 5 53 49 117 98 64 49 163
125 220 169 56 44 146 113 198 154 52 40 98 77 101 82 11 18 23 8 45 -36z
m-1656 -100 c260 -58 375 -101 375 -140 0 -19 -5 -19 -38 2 -20 13 -24 14 -15
3 9 -12 7 -20 -12 -38 l-25 -24 -87 30 c-49 16 -149 46 -223 67 -74 20 -141
39 -149 41 -11 4 -11 8 3 22 9 10 16 31 16 46 0 25 3 27 23 22 12 -4 72 -18
132 -31z"/>
<path fill="#21313C" d="M430 1476 c0 -2 7 -7 16 -10 8 -3 12 -2 9 4 -6 10 -25 14 -25 6z"/>
<path fill="#0AAD0A" d="M528 1433 c7 -3 16 -2 19 1 4 3 -2 6 -13 5 -11 0 -14 -3 -6 -6z"/>
<path fill="#0AAD0A" d="M580 1410 c8 -5 20 -10 25 -10 6 0 3 5 -5 10 -8 5 -19 10 -25 10 -5
0 -3 -5 5 -10z"/>
<path fill="#0AAD0A" d="M757 1299 c7 -7 15 -10 18 -7 3 3 -2 9 -12 12 -14 6 -15 5 -6 -5z"/>
<path fill="#0AAD0A" d="M880 1027 c0 -10 72 -25 151 -32 42 -3 123 -17 180 -29 105 -24 136
-26 83 -5 -37 14 -152 34 -274 48 -52 6 -105 14 -117 17 -13 4 -23 4 -23 1z"/>
<path fill="#0AAD0A" d="M850 990 c8 -5 26 -10 39 -10 32 0 24 6 -19 14 -25 4 -31 3 -20 -4z"/>
<path fill="#0AAD0A" d="M933 973 c9 -2 25 -2 35 0 9 3 1 5 -18 5 -19 0 -27 -2 -17 -5z"/>
<path fill="#0AAD0A" d="M800 966 c0 -6 169 -42 260 -56 41 -7 94 -18 118 -26 49 -16 62 -17
62 -6 0 10 -109 39 -180 47 -30 4 -99 15 -154 26 -109 21 -106 21 -106 15z"/>
<path d="M1050 958 c36 -5 102 -20 148 -32 89 -25 112 -20 35 7 -62 21 -156
37 -207 36 -34 -2 -30 -3 24 -11z"/>
<path d="M780 930 c14 -7 96 -24 183 -40 87 -16 162 -32 167 -35 6 -4 10 -2
10 3 0 10 -53 23 -220 52 -63 11 -126 22 -140 25 l-25 6 25 -11z"/>
<path d="M750 900 c47 -21 214 -51 199 -36 -2 2 -42 11 -89 20 -47 8 -96 18
-110 21 l-25 6 25 -11z"/>
<path d="M697 880 c4 -4 69 -22 144 -39 75 -17 165 -40 200 -50 64 -21 96 -21
43 -1 -64 25 -401 102 -387 90z"/>
<path d="M960 861 c0 -4 36 -15 80 -25 44 -10 83 -23 86 -27 6 -11 24 -12 24
-1 0 4 -12 13 -27 19 -37 16 -163 42 -163 34z"/>
<path d="M1160 850 c8 -5 22 -10 30 -10 13 0 13 1 0 10 -8 5 -22 10 -30 10
-13 0 -13 -1 0 -10z"/>
<path d="M645 845 c8 -4 282 -70 415 -100 59 -14 -44 25 -117 44 -125 32 -327
70 -298 56z"/>
<path d="M600 819 c0 -5 9 -9 20 -9 11 0 20 2 20 4 0 2 -9 6 -20 9 -11 3 -20
1 -20 -4z"/>
<path d="M658 803 c7 -3 16 -2 19 1 4 3 -2 6 -13 5 -11 0 -14 -3 -6 -6z"/>
<path d="M698 793 c7 -3 16 -2 19 1 4 3 -2 6 -13 5 -11 0 -14 -3 -6 -6z"/>
<path d="M570 781 c8 -5 40 -11 70 -14 l55 -6 -60 14 c-69 16 -86 18 -65 6z"/>
<path d="M748 783 c7 -3 16 -2 19 1 4 3 -2 6 -13 5 -11 0 -14 -3 -6 -6z"/>
<path d="M815 768 c22 -5 72 -18 110 -29 107 -31 113 -32 94 -20 -22 14 -199
61 -224 60 -11 -1 -2 -5 20 -11z"/>
<path d="M521 756 c2 -2 69 -18 149 -35 80 -18 173 -41 208 -53 35 -11 66 -18
69 -15 8 9 -146 54 -278 81 -118 25 -157 31 -148 22z"/>
<path d="M708 753 c6 -2 18 -2 25 0 6 3 1 5 -13 5 -14 0 -19 -2 -12 -5z"/>
<path d="M835 726 c50 -13 103 -29 119 -35 16 -6 31 -10 33 -7 7 7 -148 55
-197 61 -28 4 -10 -4 45 -19z"/>
<path d="M498 728 c5 -5 16 -8 23 -6 8 3 3 7 -10 11 -17 4 -21 3 -13 -5z"/>
<path d="M595 705 c33 -9 105 -27 159 -41 55 -14 108 -30 117 -35 10 -5 24 -9
31 -8 52 3 -215 80 -322 94 -40 5 -38 3 15 -10z"/>
<path d="M488 693 c7 -3 16 -2 19 1 4 3 -2 6 -13 5 -11 0 -14 -3 -6 -6z"/>
<path d="M528 683 c7 -3 16 -2 19 1 4 3 -2 6 -13 5 -11 0 -14 -3 -6 -6z"/>
<path d="M686 646 c71 -18 140 -38 151 -45 12 -6 28 -11 35 -11 53 2 -175 72
-272 84 -25 3 14 -9 86 -28z"/>
<path d="M378 643 c6 -2 18 -2 25 0 6 3 1 5 -13 5 -14 0 -19 -2 -12 -5z"/>
<path d="M430 630 c8 -5 23 -10 34 -10 33 0 230 -52 270 -71 43 -20 66 -25 51
-10 -19 17 -160 62 -255 82 -108 21 -121 23 -100 9z"/>
<path d="M588 633 c7 -3 16 -2 19 1 4 3 -2 6 -13 5 -11 0 -14 -3 -6 -6z"/>
<path d="M638 623 c7 -3 16 -2 19 1 4 3 -2 6 -13 5 -11 0 -14 -3 -6 -6z"/>
<path d="M678 613 c7 -3 16 -2 19 1 4 3 -2 6 -13 5 -11 0 -14 -3 -6 -6z"/>
<path d="M710 608 c14 -14 121 -56 118 -47 -2 6 -22 18 -43 26 -53 19 -81 27
-75 21z"/>
<path d="M1460 881 c0 -6 17 -11 38 -11 61 0 179 -35 282 -83 105 -48 130 -59
130 -52 0 8 -141 78 -204 101 -32 12 -88 27 -125 33 -36 7 -78 14 -93 17 -17
3 -28 1 -28 -5z"/>
<path d="M1485 834 c84 -14 185 -46 297 -95 78 -34 114 -38 48 -6 -136 67
-308 118 -388 116 -25 -1 -12 -6 43 -15z"/>
<path d="M1380 811 c0 -6 12 -11 28 -11 52 -1 200 -39 308 -79 119 -45 158
-53 75 -15 -80 36 -249 90 -306 98 -27 4 -62 9 -77 12 -17 3 -28 1 -28 -5z"/>
<path d="M1355 773 c137 -18 300 -64 393 -112 22 -11 43 -17 46 -12 6 9 -88
51 -169 76 -78 24 -234 55 -269 54 l-31 -2 30 -4z"/>
<path d="M1310 743 c121 -19 251 -51 338 -85 57 -22 105 -38 108 -35 5 5 -122
57 -201 81 -78 24 -192 46 -233 45 -26 -1 -29 -3 -12 -6z"/>
<path d="M1315 710 c19 -8 73 -14 64 -6 -2 2 -22 6 -44 9 -28 5 -34 4 -20 -3z"/>
<path d="M1228 693 c7 -3 16 -2 19 1 4 3 -2 6 -13 5 -11 0 -14 -3 -6 -6z"/>
<path d="M1260 690 c0 -4 38 -14 85 -24 98 -19 256 -69 303 -97 22 -12 32 -15
30 -7 -6 19 -128 66 -243 94 -159 39 -175 42 -175 34z"/>
<path d="M1398 693 c6 -2 18 -2 25 0 6 3 1 5 -13 5 -14 0 -19 -2 -12 -5z"/>
<path d="M1450 686 c0 -7 112 -38 117 -33 2 3 -20 12 -50 21 -59 17 -67 18
-67 12z"/>
<path d="M1285 645 c61 -13 124 -26 140 -30 17 -4 27 -5 24 -2 -8 10 -223 57
-251 56 -13 0 27 -11 87 -24z"/>
<path d="M1600 638 c88 -40 112 -49 116 -45 6 5 -113 57 -129 56 -7 0 -1 -5
13 -11z"/>
<path d="M1163 633 c9 -2 25 -2 35 0 9 3 1 5 -18 5 -19 0 -27 -2 -17 -5z"/>
<path d="M1228 623 c6 -2 18 -2 25 0 6 3 1 5 -13 5 -14 0 -19 -2 -12 -5z"/>
<path d="M1118 613 c7 -3 16 -2 19 1 4 3 -2 6 -13 5 -11 0 -14 -3 -6 -6z"/>
<path d="M1285 613 c48 -11 211 -66 262 -88 31 -14 58 -23 60 -21 13 12 -279
117 -320 115 -20 -1 -20 -2 -2 -6z"/>
<path d="M1178 603 c7 -3 16 -2 19 1 4 3 -2 6 -13 5 -11 0 -14 -3 -6 -6z"/>
<path d="M1480 598 c86 -40 153 -68 156 -65 5 5 -123 63 -156 71 l-25 6 25
-12z"/>
<path d="M1235 590 c11 -5 29 -8 40 -8 16 0 15 2 -5 8 -34 11 -60 11 -35 0z"/>
<path d="M1095 580 c11 -5 29 -8 40 -8 16 0 15 2 -5 8 -34 11 -60 11 -35 0z"/>
<path d="M1301 576 c4 -3 129 -47 176 -62 10 -3 7 1 -7 9 -39 23 -187 69 -169
53z"/>
<path d="M1246 545 c86 -23 170 -52 257 -89 20 -9 37 -14 37 -11 0 22 -306
126 -366 125 -11 -1 22 -12 72 -25z"/>
<path d="M1048 553 c6 -2 18 -2 25 0 6 3 1 5 -13 5 -14 0 -19 -2 -12 -5z"/>
<path d="M1158 533 c7 -3 16 -2 19 1 4 3 -2 6 -13 5 -11 0 -14 -3 -6 -6z"/>
<path d="M1028 523 c6 -2 18 -2 25 0 6 3 1 5 -13 5 -14 0 -19 -2 -12 -5z"/>
<path d="M1088 513 c6 -2 18 -2 25 0 6 3 1 5 -13 5 -14 0 -19 -2 -12 -5z"/>
<path d="M988 503 c6 -2 18 -2 25 0 6 3 1 5 -13 5 -14 0 -19 -2 -12 -5z"/>
<path d="M1268 503 c7 -3 16 -2 19 1 4 3 -2 6 -13 5 -11 0 -14 -3 -6 -6z"/>
<path d="M1530 490 c19 -11 40 -19 45 -19 6 0 -6 8 -25 19 -19 11 -39 19 -45
19 -5 0 6 -8 25 -19z"/>
<path d="M1380 466 c47 -18 94 -37 105 -41 14 -5 17 -5 10 2 -12 13 -169 73
-187 73 -7 -1 25 -16 72 -34z"/>
<path d="M1300 456 c52 -18 112 -41 133 -50 20 -9 37 -13 37 -9 0 7 -46 26
-160 68 -19 7 -51 16 -70 19 -19 4 8 -9 60 -28z"/>
<path d="M951 476 c2 -2 22 -6 44 -9 27 -4 35 -3 25 3 -14 9 -79 15 -69 6z"/>
<path d="M1128 473 c7 -3 16 -2 19 1 4 3 -2 6 -13 5 -11 0 -14 -3 -6 -6z"/>
<path d="M1068 453 c7 -3 16 -2 19 1 4 3 -2 6 -13 5 -11 0 -14 -3 -6 -6z"/>
<path d="M948 443 c6 -2 18 -2 25 0 6 3 1 5 -13 5 -14 0 -19 -2 -12 -5z"/>
<path d="M1010 430 c34 -11 60 -11 35 0 -11 5 -29 8 -40 8 -16 0 -15 -2 5 -8z"/>
<path d="M1138 433 c7 -3 16 -2 19 1 4 3 -2 6 -13 5 -11 0 -14 -3 -6 -6z"/>
<path d="M1275 430 c27 -12 43 -12 25 0 -8 5 -22 9 -30 9 -10 0 -8 -3 5 -9z"/>
<path d="M1078 413 c7 -3 16 -2 19 1 4 3 -2 6 -13 5 -11 0 -14 -3 -6 -6z"/>
<path d="M1320 418 c13 -14 110 -57 110 -49 0 5 -19 17 -42 26 -62 25 -74 29
-68 23z"/>
<path d="M1125 400 c90 -40 214 -87 210 -80 -6 9 -208 90 -222 89 -4 0 1 -4
12 -9z"/>
<path d="M1240 400 c8 -5 20 -10 25 -10 6 0 3 5 -5 10 -8 5 -19 10 -25 10 -5
0 -3 -5 5 -10z"/>
<path d="M734 389 c-9 -15 16 -37 53 -48 45 -13 58 0 33 32 -22 28 -72 37 -86
16z"/>
<path d="M1280 386 c0 -2 7 -7 16 -10 8 -3 12 -2 9 4 -6 10 -25 14 -25 6z"/>
<path d="M1604 368 l-19 -23 23 19 c21 18 27 26 19 26 -2 0 -12 -10 -23 -22z"/>
<path d="M300 570 c8 -5 22 -9 30 -9 10 0 8 3 -5 9 -27 12 -43 12 -25 0z"/>
<path d="M358 553 c7 -3 16 -2 19 1 4 3 -2 6 -13 5 -11 0 -14 -3 -6 -6z"/>
<path d="M680 470 c8 -5 20 -10 25 -10 6 0 3 5 -5 10 -8 5 -19 10 -25 10 -5 0
-3 -5 5 -10z"/>
<path fill="#21313C"  d="M588 463 c7 -3 16 -2 19 1 4 3 -2 6 -13 5 -11 0 -14 -3 -6 -6z"/>
<path fill="#21313C"  d="M3510 1782 c-51 -25 -82 -94 -88 -192 -3 -60 -1 -80 11 -92 9 -9 14
-18 11 -21 -10 -9 58 -57 82 -57 87 0 135 66 142 196 5 98 -12 144 -63 168
-42 20 -52 20 -95 -2z m74 -107 c4 -25 4 -49 1 -55 -3 -5 0 -10 7 -10 9 0 10
-2 1 -8 -6 -4 -14 -24 -18 -45 -8 -44 -36 -65 -55 -42 -9 11 -11 36 -7 83 7
85 21 122 46 122 15 0 20 -10 25 -45z"/>
<path fill="#21313C" d="M2075 1783 c-22 -2 -43 -9 -46 -15 -5 -8 -23 -250 -24 -328 0 -11 11
-15 40 -15 l40 0 5 55 c6 71 25 72 62 5 15 -27 29 -54 31 -58 2 -8 77 30 77
39 0 3 -11 27 -25 54 l-25 49 25 37 c31 46 34 120 7 154 -20 24 -82 33 -167
23z m101 -87 c9 -23 -13 -53 -46 -64 l-30 -11 0 39 c0 21 6 41 13 43 25 11 58
7 63 -7z"/>
<path fill="#21313C" d="M2359 1783 l-46 -4 -6 -82 c-4 -45 -7 -127 -7 -181 l0 -99 53 7 c28
3 82 6 120 6 l67 0 0 45 0 45 -75 0 c-68 0 -75 2 -75 20 0 12 8 21 23 24 89
17 102 22 101 39 -1 9 -2 24 -3 32 -1 12 -15 15 -61 15 -53 0 -60 2 -60 20 0
20 5 22 113 35 l47 6 0 40 0 39 -72 -2 c-40 -1 -94 -3 -119 -5z"/>
<path fill="#21313C" d="M2586 1673 c-3 -65 -8 -146 -11 -180 -2 -34 0 -65 4 -68 5 -3 57 -2
115 2 l106 6 0 49 0 48 -67 0 -66 0 6 130 6 130 -43 0 -44 0 -6 -117z"/>
<path fill="#21313C" d="M2949 1783 c-23 -6 -145 -334 -132 -355 2 -5 24 -8 49 -8 41 0 45 2
50 29 6 30 25 41 72 41 19 0 22 -5 22 -35 l0 -35 51 0 51 0 -7 53 c-17 121
-55 280 -71 298 -16 18 -48 22 -85 12z m41 -179 c0 -27 -4 -34 -19 -34 -17 0
-18 4 -9 40 12 47 28 44 28 -6z m-41 -3 c-6 -18 -13 -30 -15 -28 -2 2 1 18 7
36 6 18 13 30 15 28 2 -2 -1 -18 -7 -36z m127 -136 l7 -30 -20 25 c-12 13 -18
30 -16 38 7 18 20 4 29 -33z"/>
<path fill="#21313C" d="M3147 1783 c-4 -3 -7 -26 -7 -51 l0 -45 40 6 40 5 2 -86 c2 -48 2
-111 1 -140 l-2 -53 40 3 40 3 5 130 c3 72 7 136 9 143 3 7 21 12 45 12 l40 0
0 40 0 40 -123 0 c-68 0 -127 -3 -130 -7z"/>
<path fill="#21313C" d="M3783 1776 c-42 -19 -66 -58 -66 -106 0 -46 10 -60 70 -101 70 -49
53 -96 -23 -64 -36 15 -39 15 -51 -1 -34 -46 10 -79 104 -79 65 0 102 31 110
91 4 33 1 45 -22 72 -15 17 -40 40 -56 49 -32 19 -43 41 -33 67 11 28 34 19
34 -14 0 -28 2 -30 40 -30 l40 0 0 43 c0 31 -6 49 -19 61 -26 24 -89 29 -128
12z"/>
<path fill="#21313C" d="M4164 1779 c-35 -10 -33 5 -50 -261 l-6 -98 54 0 c101 1 165 49 194
147 27 90 11 173 -39 203 -34 21 -99 25 -153 9z m113 -108 c3 -14 11 -29 17
-33 8 -6 8 -8 0 -8 -6 0 -14 -14 -18 -31 -3 -17 -20 -45 -37 -62 -29 -29 -33
-30 -39 -13 -3 10 -3 48 2 84 4 35 5 69 2 73 -7 11 36 28 54 22 7 -3 15 -17
19 -32z"/>
<path fill="#21313C" d="M4453 1783 c-24 -3 -44 -10 -47 -19 -3 -8 -9 -89 -12 -181 l-7 -166
63 6 c35 4 89 7 121 7 l59 0 0 45 0 45 -75 0 c-68 0 -75 2 -75 20 0 14 9 21
38 25 97 16 93 14 90 51 l-2 34 -62 0 c-57 0 -62 2 -57 20 6 21 17 25 97 34
54 7 66 17 66 59 l0 27 -77 -2 c-43 -1 -97 -3 -120 -5z m18 -206 c-10 -9 -11
-8 -5 6 3 10 9 15 12 12 3 -3 0 -11 -7 -18z"/>
<path fill="#21313C" d="M2792 1038 c-31 -6 -56 -16 -61 -26 -4 -9 -11 -88 -14 -175 l-6 -158
42 3 42 3 3 53 c3 46 6 52 25 52 40 1 106 38 127 72 32 50 23 122 -19 160 -34
30 -51 32 -139 16z m86 -105 c3 -29 -1 -35 -32 -50 -20 -9 -38 -15 -40 -12
-12 11 8 88 23 92 33 10 46 2 49 -30z m-142 -241 c-13 -12 -16 8 -9 49 l8 44
3 -44 c2 -23 1 -46 -2 -49z"/>
<path fill="#21313C" d="M3129 1043 c-23 -6 -145 -334 -132 -355 2 -5 24 -8 49 -8 41 0 45 2
50 29 6 30 25 41 72 41 19 0 22 -5 22 -35 l0 -35 51 0 51 0 -7 53 c-17 121
-55 280 -71 298 -16 18 -48 22 -85 12z m41 -179 c0 -27 -4 -34 -19 -34 -17 0
-18 4 -9 40 12 47 28 44 28 -6z m-49 -21 c-12 -20 -14 -14 -5 12 4 9 9 14 11
11 3 -2 0 -13 -6 -23z m135 -118 l7 -30 -20 25 c-12 13 -18 30 -16 38 7 18 20
4 29 -33z"/>
<path fill="#21313C" d="M3390 1037 l-55 -12 -6 -75 c-4 -41 -7 -119 -8 -172 l-1 -98 39 0 40
0 3 51 3 52 45 13 c95 28 120 58 120 143 0 93 -57 125 -180 98z m88 -79 c19
-19 14 -45 -14 -67 -42 -33 -54 -27 -54 23 0 38 3 45 23 49 12 2 24 5 28 6 3
0 10 -4 17 -11z m-130 -217 c1 -22 -3 -43 -8 -46 -11 -7 -14 44 -4 69 9 23 11
20 12 -23z"/>
<path fill="#21313C" d="M3664 1043 c-39 -4 -42 -6 -47 -41 -3 -20 -9 -101 -13 -180 l-7 -142
119 6 c68 4 122 12 127 18 4 6 6 25 5 41 l-3 30 -77 3 c-69 3 -78 5 -78 22 0
14 9 21 38 25 97 16 93 14 90 51 l-2 34 -58 0 c-50 0 -58 3 -58 19 0 22 19 31
65 31 18 0 47 3 64 6 28 6 31 10 31 45 l0 39 -77 -2 c-43 -1 -97 -3 -119 -5z"/>
<path fill="#21313C" d="M3897 1043 c-2 -5 -8 -89 -11 -187 l-8 -179 63 6 c34 4 84 7 110 7
l49 0 0 50 0 50 -65 0 -64 0 6 130 6 130 -41 0 c-22 0 -43 -3 -45 -7z"/>
<path fill="#21313C" d="M2430 355 l0 -105 40 0 c22 0 40 5 40 10 0 6 -13 10 -30 10 l-30 0 0
95 c0 57 -4 95 -10 95 -6 0 -10 -42 -10 -105z"/>
<path fill="#21313C" d="M2570 355 c0 -63 4 -105 10 -105 6 0 10 42 10 105 0 63 -4 105 -10
105 -6 0 -10 -42 -10 -105z"/>
<path fill="#21313C" d="M2660 355 l0 -105 33 0 c18 0 38 5 45 12 15 15 16 80 1 95 -8 8 -8
13 0 17 15 9 14 59 -1 74 -7 7 -27 12 -45 12 l-33 0 0 -105z m65 50 c0 -23 -5
-31 -22 -33 -20 -3 -23 1 -23 33 0 32 3 36 23 33 17 -2 22 -10 22 -33z m0 -95
c0 -29 -4 -36 -22 -38 -21 -3 -23 1 -23 38 0 37 2 41 23 38 18 -2 22 -9 22
-38z"/>
<path fill="#21313C" d="M2820 355 c0 -63 4 -105 10 -105 6 0 10 20 10 45 0 37 3 45 19 45 21
0 31 -19 31 -61 0 -16 5 -29 10 -29 13 0 13 73 0 86 -6 6 -6 20 2 41 18 49 -1
83 -47 83 l-35 0 0 -105z m66 60 c7 -27 -10 -55 -32 -55 -10 0 -14 13 -14 40
0 33 3 40 20 40 13 0 22 -9 26 -25z"/>
<path fill="#21313C" d="M2970 355 l0 -105 45 0 c52 0 61 17 13 22 -30 3 -33 6 -33 38 0 31 3
35 28 38 33 4 26 22 -9 22 -21 0 -24 5 -24 35 0 33 2 35 35 35 19 0 35 5 35
10 0 6 -20 10 -45 10 l-45 0 0 -105z"/>
<path fill="#21313C" d="M3120 355 c0 -63 4 -105 10 -105 6 0 10 21 10 46 0 41 2 45 23 42 18
-2 23 -10 25 -45 2 -26 8 -43 15 -43 15 0 11 78 -5 97 -6 7 -5 14 2 18 14 9
13 68 -2 83 -7 7 -27 12 -45 12 l-33 0 0 -105z m65 45 c0 -29 -4 -36 -22 -38
-21 -3 -23 1 -23 38 0 37 2 41 23 38 18 -2 22 -9 22 -38z"/>
<path fill="#21313C" d="M3280 355 c0 -63 4 -105 10 -105 6 0 10 42 10 105 0 63 -4 105 -10
105 -6 0 -10 -42 -10 -105z"/>
<path fill="#21313C" d="M3400 456 c0 -2 -9 -48 -20 -101 -23 -113 -22 -105 -11 -105 5 0 11
9 14 20 3 14 14 20 32 20 18 0 29 -6 32 -20 5 -20 23 -28 23 -11 0 9 -24 129
-35 179 -3 12 -12 22 -20 22 -8 0 -15 -2 -15 -4z m33 -108 c5 -35 4 -38 -19
-38 -13 0 -24 2 -24 5 0 2 5 28 11 57 13 57 20 51 32 -24z"/>
<path fill="#21313C" d="M3619 433 c-15 -40 -7 -162 11 -173 25 -16 59 -11 70 9 5 11 10 50
10 86 0 82 -11 105 -51 105 -23 0 -32 -6 -40 -27z m65 -9 c3 -9 6 -40 6 -69 0
-65 -7 -85 -30 -85 -20 0 -30 27 -30 85 0 22 3 50 6 63 7 25 39 30 48 6z"/>
<path fill="#21313C" d="M3770 356 c0 -126 18 -144 22 -23 l3 82 25 -79 c37 -116 50 -111 50
18 0 64 -4 106 -10 106 -6 0 -10 -31 -11 -72 l-1 -73 -23 70 c-14 44 -29 71
-39 73 -14 3 -16 -10 -16 -102z"/>
<path fill="#21313C" d="M3930 355 l0 -105 40 0 c45 0 55 17 13 22 l-28 3 -3 93 c-4 128 -22
117 -22 -13z"/>
<path fill="#21313C" d="M4080 355 c0 -63 4 -105 10 -105 6 0 10 42 10 105 0 63 -4 105 -10
105 -6 0 -10 -42 -10 -105z"/>
<path fill="#21313C" d="M4160 355 c0 -63 4 -105 10 -105 6 0 10 35 11 83 l1 82 26 -82 c36
-118 52 -111 52 22 0 119 -18 145 -22 33 l-3 -73 -23 73 c-15 46 -28 72 -37
72 -12 0 -15 -19 -15 -105z"/>
<path fill="#21313C" d="M4320 355 l0 -105 45 0 c52 0 61 17 13 22 -30 3 -33 6 -33 38 0 31 3
35 28 38 33 4 26 22 -9 22 -21 0 -24 5 -24 35 0 33 2 35 35 35 19 0 35 5 35
10 0 6 -20 10 -45 10 l-45 0 0 -105z"/>
</g>
</svg>
